<?xml version="1.0" encoding="utf-8"?>
<!-- Generator: Adobe Illustrator 22.0.0, SVG Export Plug-In . SVG Version: 6.00 Build 0)  -->
<svg version="1.1" id="Layer_1" xmlns="http://www.w3.org/2000/svg" xmlns:xlink="http://www.w3.org/1999/xlink" x="0px" y="0px"
	 viewBox="0 0 1133.9 1133.9" style="enable-background:new 0 0 1133.9 1133.9;" xml:space="preserve">
<style type="text/css">
	.st0{fill:#010101;}
	.st1{fill:#231F20;}
	.st2{fill:#211A15;}
</style>
<g>
	<path class="st2" d="M221.7,675.9c0,0-1-0.1-3-0.2c-0.5,0-1-0.1-1.7-0.1c-0.6,0-1.3-0.1-2-0.3c-1.4-0.3-3.2-0.6-5.1-1.1
		c-3.7-1.2-8.4-2.7-13.2-5.7c-4.9-2.9-10.3-7-15.2-12.8c-4.9-5.7-9.5-12.9-12.6-21.6c-1.5-4.4-2.9-9-3.5-14.1
		c-0.1-1.3-0.4-2.5-0.5-3.8c-0.1-1.3-0.1-2.6-0.2-4l0-1l0-0.5l0-0.7l0.1-1.8c0.1-1.2,0.1-2.4,0.2-3.7c0.2-1.4,0.4-2.8,0.6-4.3
		c0.1-0.7,0.2-1.4,0.3-2.2c0.1-0.7,0.3-1.4,0.4-2.1c0.3-1.4,0.6-2.8,1-4.2c0.4-1.4,0.8-2.7,1.3-4.1c0.8-2.8,2-5.5,3.1-8.3
		c0.6-1.3,1.3-2.7,2-4.1c0.3-0.7,0.7-1.4,1-2l1.1-2c2.9-5.4,6.7-10.4,10.8-15.3c4.1-4.9,8.9-9.4,14.1-13.7c5.2-4.3,11-8,17.2-11.4
		l2.4-1.2l0.3-0.2c0.2-0.1-0.1,0,0.6-0.3l0.5-0.2l1.1-0.5c1.5-0.7,2.9-1.3,4.4-2c0.7-0.3,1.6-0.7,2.5-1l2.6-1
		c1.7-0.7,3.5-1.4,5.2-1.9c6.8-2.4,13.9-4,21.2-5.3c7.3-1.2,14.8-1.9,22.4-2.1c7.6-0.2,15.2,0.1,22.8,0.9c7.6,0.8,15.3,1.9,22.9,3.4
		c15.2,3,30.2,7.5,45.1,12.6c7.4,2.6,14.8,5.3,22.2,8.2c7.3,2.9,14.6,5.9,21.9,8.9c7.2,3,14.5,6.1,21.8,9.1c3.6,1.5,7.2,3,10.8,4.5
		c3.7,1.5,7.3,3,11,4.5c29.6,12,59.6,24.5,89.6,36.9c29.9,12.6,59.9,25.2,89.2,37.9c7.3,3.2,14.7,6.3,21.9,9.4
		c7.3,3.2,14.6,6.4,21.8,9.6c14.8,6.6,28.4,13.5,41.7,19.1c6.6,2.8,13.2,5.2,19.6,7.1c6.5,1.9,12.8,3.2,19,3.9
		c1.5,0.1,3.1,0.3,4.6,0.4c1.5,0,3,0,4.5,0l1.1,0l1.1-0.1l2.2-0.2l2.2-0.2c0.2,0-1,0.2-0.3,0.1l0.3-0.1l0.7-0.1l1.3-0.2l2.6-0.5
		l1.7-0.5l1.7-0.4l2-0.7c0.7-0.2,1.3-0.4,2-0.7l1.9-0.8c0.6-0.3,1.3-0.5,1.9-0.8l1.8-1c9.8-5.2,17.7-13.5,21.8-22.8
		c0.5-1.2,1.1-2.3,1.4-3.5c0.3-1.2,0.9-2.4,1-3.6c0.2-1.2,0.6-2.4,0.7-3.7l0.2-1.8l0.1-0.9l0.1-0.5c0,0.1,0-0.5,0,0.1v-0.3l0-2.4
		l-0.1-1.5c0-0.4-0.1-1.1-0.2-1.7c0-0.6-0.2-1.2-0.3-1.7c-0.4-2.3-1-4.6-1.9-6.8c-3.5-9-10.5-16.6-18.4-21c-2-1.1-4-2.1-6.1-2.8
		c-2.1-0.7-4.2-1.2-6.3-1.5c-4.2-0.6-8.4-0.3-12.3,0.6c-0.5,0.1-1,0.3-1.5,0.4l-0.7,0.2l-0.2,0.1c-0.3,0.1,0.1-0.1,0,0l-0.4,0.2
		l-1.7,0.7l-0.8,0.3l-0.6,0.3c-0.8,0.4-1.7,0.8-2.6,1.3l-1.3,0.7l-1.2,0.8c-3.3,2.2-6.1,4.9-8.3,7.9c-4.5,6-6.7,13-7.3,19.5
		c-0.5,6.5,0.5,12.5,2.3,17.5c1.8,5,4.2,8.9,6.6,11.8c2.3,2.9,4.5,4.9,6,6.2c1.5,1.2,2.3,1.9,2.3,1.9s-0.9-0.5-2.6-1.4
		c-1.7-1-4.3-2.5-7.1-5.2c-2.9-2.6-6.2-6.3-9-11.4c-2.9-5.1-5.1-11.6-5.6-19.3c-0.5-7.7,0.9-16.6,5.7-25.1c2.3-4.3,5.6-8.3,9.6-11.8
		l1.5-1.3l1.6-1.2c1-0.8,2.3-1.6,3.5-2.4l0.9-0.6l0.8-0.4l1.6-0.9l0.4-0.2l0.7-0.3l1-0.4c0.7-0.3,1.3-0.6,2-0.9
		c5.4-2.1,11.6-3.3,17.9-3c3.1,0.1,6.3,0.5,9.5,1.2c3.1,0.7,6.3,1.7,9.3,3c6.1,2.5,11.7,6.3,16.8,11c5.1,4.7,9.5,10.3,12.9,16.9
		c1.7,3.3,3.1,6.8,4.1,10.6c0.3,0.9,0.5,1.9,0.7,2.8c0.2,1,0.4,1.8,0.6,3c0.1,1.1,0.3,2.2,0.4,3.2l0.2,2.4l0,0.3l0,0.7l0,0.7l0,1.5
		l0,2.9c0,2-0.4,3.9-0.6,5.9c-0.2,2-0.7,3.9-1.2,5.9c-0.4,2-1.1,3.9-1.7,5.8c-5.3,15.3-16.3,28.4-30.5,37.4l-2.7,1.7
		c-0.9,0.5-1.9,1-2.8,1.5l-2.8,1.5c-1,0.4-2,0.8-3,1.3l-3,1.2c-1.1,0.4-2.3,0.7-3.4,1.1l-3.4,1l-2.6,0.6l-1.3,0.3l-0.7,0.2l-0.3,0.1
		c0.4-0.1-1,0.2-1,0.2l-3.2,0.4l-3.2,0.4l-1.6,0.2l-1.6,0.1c-2.1,0.1-4.2,0.2-6.4,0.3c-2.1-0.1-4.2-0.1-6.3-0.2
		c-8.4-0.4-16.7-1.7-24.7-3.7c-8-2-15.7-4.5-23.3-7.2c-15.1-5.5-29.4-12.2-43.3-17.9c-7.2-2.9-14.5-5.8-21.8-8.7
		c-7.3-3-14.7-6-22.1-9c-29.6-12-59.6-24.5-89.6-36.9c-29.9-12.6-59.9-25.2-89.2-38c-7.3-3.1-14.9-6.4-22.1-9.7
		c-7.2-3.3-14.4-6.6-21.5-9.8c-14.2-6.5-28-12.6-41.7-18.1c-6.9-2.7-13.7-5.2-20.4-7.5c-6.8-2.2-13.5-4.3-20.2-6
		c-6.7-1.7-13.3-3.1-19.9-4.2c-6.6-1-13.1-1.7-19.5-2c-6.4-0.3-12.7-0.1-18.8,0.4c-1.5,0.2-3,0.4-4.6,0.6l-2.3,0.3l-2.2,0.4
		c-1.5,0.3-3,0.5-4.4,0.8c-1.5,0.3-2.9,0.7-4.4,1c-1.5,0.3-2.8,0.7-4.1,1.1l-2,0.6c-0.7,0.2-1.3,0.3-2.1,0.6c-1.5,0.5-3,1.1-4.5,1.6
		l-1.1,0.4l-0.6,0.2c0.5-0.2,0,0,0.1,0l-0.2,0.1l-1.9,0.8c-5.2,2.2-10.1,4.8-14.6,7.9c-9.1,6-16.8,13.5-22.6,21.6l-1.1,1.5
		c-0.3,0.5-0.7,1-1,1.6c-0.7,1-1.3,2.1-2,3.1c-1.1,2.2-2.4,4.2-3.2,6.4c-0.5,1.1-1,2.2-1.4,3.2c-0.4,1.1-0.8,2.2-1.1,3.3
		c-0.2,0.5-0.4,1.1-0.5,1.6l-0.4,1.5c-0.3,1-0.6,2.1-0.8,3.1c-0.2,1.2-0.4,2.4-0.6,3.6l-0.3,1.8l0,0.2c0,0.3,0-0.2,0-0.1l0,0.4
		l-0.1,0.8c-0.1,1.1-0.2,2.1-0.3,3.2c-0.1,1.1,0,2.1,0,3.1c0,4.2,0.6,8.2,1.4,12.1c1.7,7.8,4.9,14.6,8.4,20.3
		c7.3,11.4,16.6,17.8,23.4,20.9c1.7,0.7,3.3,1.3,4.6,1.8c0.7,0.3,1.3,0.5,1.9,0.6c0.6,0.2,1.1,0.3,1.6,0.4
		C220.7,675.7,221.7,675.9,221.7,675.9z"/>
</g>
</svg>
